<?xml version="1.0" encoding="utf-8"?>
<!-- Generator: Adobe Illustrator 16.0.0, SVG Export Plug-In . SVG Version: 6.00 Build 0)  -->
<!DOCTYPE svg PUBLIC "-//W3C//DTD SVG 1.1//EN" "http://www.w3.org/Graphics/SVG/1.1/DTD/svg11.dtd">
<svg version="1.1" id="Layer_1" xmlns="http://www.w3.org/2000/svg" xmlns:xlink="http://www.w3.org/1999/xlink" x="0px" y="0px"
	 width="266.46px" height="56.69px" viewBox="0 0 266.46 56.69" enable-background="new 0 0 266.46 56.69" xml:space="preserve">
<g>
	<path fill="#010101" d="M1.146,22.178h5.365c2.927,0,4.512,1.748,4.512,4.105s-1.585,4.105-4.512,4.105H2.812v4.552H1.146V22.178z
		 M2.812,23.641v5.325h3.699c1.869,0,2.805-1.098,2.805-2.643c0-1.544-0.976-2.683-2.846-2.683H2.812z"/>
	<path fill="#010101" d="M26.631,22.178h1.667V34.94h-1.667V22.178z"/>
	<path fill="#010101" d="M71.262,22.178h9.023v1.463h-7.357v4.594h5.854v1.382h-5.854v5.324h-1.666V22.178z"/>
	<path fill="#010101" d="M100.73,21.893c3.74,0,6.545,2.846,6.545,6.667c0,3.82-2.805,6.666-6.545,6.666
		c-3.739,0-6.544-2.846-6.544-6.666C94.187,24.738,96.95,21.893,100.73,21.893z M100.73,33.681c2.846,0,4.797-2.195,4.797-5.121
		c0-2.927-1.951-5.122-4.797-5.122c-2.845,0-4.796,2.195-4.796,5.122C95.935,31.485,97.845,33.681,100.73,33.681L100.73,33.681z"/>
	<path fill="#010101" d="M122.884,22.178h5.527c2.846,0,4.391,1.423,4.391,3.78c0,1.991-1.098,3.414-3.13,3.82l3.617,5.203h-1.87
		l-3.495-5.121h-3.374v5.08h-1.666V22.178z M124.591,23.641v4.797h3.861c1.829,0,2.683-0.976,2.683-2.439
		c0-1.463-0.935-2.316-2.683-2.316L124.591,23.641z"/>
	<path fill="#010101" d="M148.897,22.178h1.829l4.756,7.113l4.756-7.113h1.829V34.94h-1.666l0.081-10.283l-4.431,6.544h-1.098
		l-4.431-6.544l0.081,10.283h-1.666V22.178H148.897z"/>
	<path fill="#010101" d="M181.822,22.178h1.951l4.999,12.763h-1.748l-1.341-3.455h-5.935l-1.342,3.455h-1.666L181.822,22.178z
		 M182.716,23.885l-2.397,6.219h4.877l-2.397-6.219H182.716z"/>
	<path fill="#010101" d="M203.527,22.178h1.545l7.52,9.999h0.041l-0.041-10.04h1.667V34.9h-1.545l-7.52-10.04h-0.081l0.081,10.04
		h-1.667V22.178z"/>
	<path fill="#010101" d="M236.614,21.893c1.91,0,3.78,0.772,4.878,2.154l-1.138,1.058c-0.895-1.098-2.276-1.748-3.699-1.707
		c-3.008,0-4.919,2.154-4.919,5.121s1.911,5.121,4.878,5.121c1.423,0.041,2.805-0.568,3.699-1.707l1.138,1.057
		c-1.097,1.383-2.927,2.154-4.877,2.154c-3.983,0-6.667-2.926-6.667-6.666C229.907,24.738,232.591,21.893,236.614,21.893z"/>
	<path fill="#010101" d="M256.856,22.178h9.105v1.463h-7.438v4.105h6.057v1.382h-6.057v4.391h7.642v1.463h-9.309V22.178z"/>
	<path fill="#010101" d="M35.045,44.046L35.045,44.046c-0.325-0.284-0.366-0.731-0.081-1.057l31.908-32.803
		c0.325-0.284,0.812-0.244,1.097,0.041l0,0l0,0c0.325,0.284,0.366,0.731,0.082,1.057L36.143,44.086
		C35.817,44.411,35.329,44.371,35.045,44.046L35.045,44.046z"/>
	<path fill="#010101" d="M51.263,31.689l15.162,14.958c0.325,0.284,0.772,0.243,1.057-0.041l0,0
		c0.284-0.284,0.325-0.731,0.041-1.057L52.32,30.551L51.263,31.689z"/>
	<path fill="#010101" d="M48.418,26.08l-8.292-8.049c-0.325-0.284-0.813-0.243-1.057,0.082l0,0
		c-0.325,0.284-0.325,0.771-0.041,1.057l8.292,8.048L48.418,26.08z"/>
</g>
</svg>
