<svg xmlns="http://www.w3.org/2000/svg" xmlns:xlink="http://www.w3.org/1999/xlink" viewBox="0 0 17.27 17.27"><defs><style>.cls-1,.cls-5{fill:none;}.cls-2{clip-path:url(#clip-path);}.cls-3{fill:#94dacf;}.cls-4{fill:#fff;}.cls-5{stroke:#fff;stroke-miterlimit:10;stroke-width:0.5px;}</style><clipPath id="clip-path"><rect class="cls-1" width="17.27" height="17.27"/></clipPath></defs><title>Asset 4</title><g id="Layer_2" data-name="Layer 2"><g id="Layer_2-2" data-name="Layer 2"><g class="cls-2"><path class="cls-3" d="M8.64,17.27a8.64,8.64,0,1,1,8.64-8.64,8.64,8.64,0,0,1-8.64,8.64"/><path class="cls-4" d="M14.38,13,4.73,3.12a.25.25,0,0,0-.33,0,.22.22,0,0,0,0,.32L14,13.38a.24.24,0,0,0,.33,0c.1-.09.13-.17,0-.32"/><path class="cls-5" d="M14.38,13,4.73,3.12a.25.25,0,0,0-.33,0,.22.22,0,0,0,0,.32L14,13.38a.24.24,0,0,0,.33,0C14.46,13.28,14.48,13.19,14.38,13Z"/><path class="cls-4" d="M9.45,9.63,4.86,14.15a.24.24,0,0,1-.33-.33l4.6-4.54Z"/><path class="cls-5" d="M9.45,9.63,4.86,14.15a.24.24,0,0,1-.33-.33l4.6-4.54Z"/><path class="cls-4" d="M10.31,7.93,12.82,5.5a.24.24,0,0,1,.33.34L10.64,8.27Z"/><path class="cls-5" d="M10.31,7.93,12.82,5.5a.24.24,0,0,1,.33.34L10.64,8.27Z"/></g></g></g></svg>