<?xml version="1.0" standalone="no"?>
<!DOCTYPE svg PUBLIC "-//W3C//DTD SVG 20010904//EN"
 "http://www.w3.org/TR/2001/REC-SVG-20010904/DTD/svg10.dtd">
<svg version="1.0" xmlns="http://www.w3.org/2000/svg"
 width="260.000000pt" height="260.000000pt" viewBox="0 0 260.000000 260.000000"
 preserveAspectRatio="xMidYMid meet">
<metadata>
Created by potrace 1.11, written by Peter Selinger 2001-2013
</metadata>
<g transform="translate(0.000000,260.000000) scale(0.100000,-0.100000)"
fill="#000000" stroke="none">
<path d="M2317 2526 c-40 -40 -166 -172 -282 -292 -115 -120 -228 -236 -250
-259 -99 -102 -567 -588 -795 -825 -75 -79 -492 -510 -545 -565 -339 -349
-340 -349 -297 -388 33 -30 60 -20 120 41 31 33 151 157 267 277 116 119 237
246 270 280 33 34 152 158 265 275 113 117 230 238 260 270 142 146 491 508
544 564 32 33 149 155 260 269 111 115 231 240 269 279 72 76 83 106 45 132
-38 27 -57 18 -131 -58z"/>
<path d="M435 2025 c-14 -13 -25 -31 -25 -39 0 -8 35 -50 79 -93 350 -346 512
-503 519 -503 5 0 23 16 40 36 32 36 32 37 15 57 -16 18 -75 76 -419 413 -119
117 -161 154 -176 154 -5 0 -20 -11 -33 -25z"/>
<path d="M1323 1113 c-18 -20 -33 -39 -33 -43 0 -7 1041 -1048 1062 -1061 36
-23 91 14 80 54 -5 19 -229 246 -937 948 l-140 139 -32 -37z"/>
</g>
</svg>
